{"title":"True.Blood.S05E06.720p.Xvid(overloadextreme.com)","uid":7448153,"size":534524342,"categoryP":"video","categoryS":"hd___tv_shows","magnet":"?xt=urn:btih:b549735b7f750d77f6a5a8d82b63654dac04790c&amp;dn=True.Blood.S05E06.720p.Xvid%28overloadextreme.com%29&amp;tr=udp%3A%2F%2Ftracker.openbittorrent.com%3A80&amp;tr=udp%3A%2F%2Fopen.demonii.com%3A1337&amp;tr=udp%3A%2F%2Ftracker.coppersurfer.tk%3A6969&amp;tr=udp%3A%2F%2Fexodus.desync.com%3A6969","seeders":1,"leechers":0,"uploader":"pspxxx","files":1,"time":1342433492,"description":"True Blood S05E06\n\nScreens &lt;a href=&quot;\nhttp://bayimg.com/KaAmLAAea&quot; rel=&quot;nofollow&quot; target=&quot;_NEW&quot;&gt;\nhttp://bayimg.com/KaAmLAAea&lt;/a&gt;\n\nFormat                         \nFormat/Info                              : Audio Video Interleave\nFile size                                : 510 MiB\nDuration                                 : 53mn 26s\nOverall bit rate                         : 1 334 Kbps\nWriting application                      : Lavf53.18.0\n\nVideo\nID                                       : 0\nFormat                                   : xvid\nCodec ID                                 : xvid\nDuration                                 : 53mn 26s\nBit rate                                 : 1 193 Kbps\nWidth                                    : 720 pixels\nHeight                                   : 404 pixels\nDisplay aspect ratio                     : 16:9\nFrame rate                               : 29.970 fps\nBits/(Pixel*Frame)                       : 0.137\nStream size                              : 456 MiB (89%)\n\nAudio\nID                                       : 1\nFormat                                   : MPEG Audio\nFormat version                           : Version 1\nFormat profile                           : Layer 3\nMode                                     : Joint stereo\nMode extension                           : MS Stereo\nCodec ID                                 : 55\nCodec ID/Hint                            : MP3\nDuration                                 : 53mn 26s\nBit rate mode                            : Constant\nBit rate                                 : 128 Kbps\nChannel(s)                               : 2 channels\nSampling rate                            : 44.1 KHz\nCompression mode                         : Lossy\nStream size                              : 48.9 MiB (10%)\nAlignment                                : Aligned on interleaves\nInterleave, duration                     : 26 ms (0.78 video frame)","torrent":{"xt":"urn:btih:b549735b7f750d77f6a5a8d82b63654dac04790c","amp;dn":"True.Blood.S05E06.720p.Xvid%28overloadextreme.com%29","amp;tr":["udp%3A%2F%2Ftracker.openbittorrent.com%3A80","udp%3A%2F%2Fopen.demonii.com%3A1337","udp%3A%2F%2Ftracker.coppersurfer.tk%3A6969","udp%3A%2F%2Fexodus.desync.com%3A6969"],"infoHash":"b549735b7f750d77f6a5a8d82b63654dac04790c","infoHashBuffer":{"type":"Buffer","data":[181,73,115,91,127,117,13,119,246,165,168,216,43,99,101,77,172,4,121,12]},"announce":[],"urlList":[]}}